<?xml version="1.0" encoding="utf-8"?>
<!-- Generator: Adobe Illustrator 23.0.0, SVG Export Plug-In . SVG Version: 6.00 Build 0)  -->
<svg version="1.1" id="Capa_1" xmlns="http://www.w3.org/2000/svg" xmlns:xlink="http://www.w3.org/1999/xlink" x="0px" y="0px"
	 viewBox="0 0 512 512" style="enable-background:new 0 0 512 512;" xml:space="preserve">
<style type="text/css">
	.st0{fill:#A8771A;}
</style>
<path class="st0" d="M447-0.5H63c-35.3,0-64,28.7-64,64v384c0,35.3,28.7,64,64,64h192h96h96c35.3,0,64-28.7,64-64v-384
	C511,28.2,482.3-0.5,447-0.5z M256,384c-70.7,0-128-57.3-128-128s57.3-128,128-128s128,57.3,128,128S326.7,384,256,384z
	 M393.6,135.5c-9.4,0-17.1-7.6-17.1-17.1c0-9.4,7.6-17.1,17.1-17.1c9.4,0,17.1,7.6,17.1,17.1C410.7,127.8,403,135.5,393.6,135.5z"/>
<circle class="st0" cx="256" cy="256" r="80"/>
</svg>
