<?xml version="1.0" encoding="utf-8"?>
<!-- Generator: Adobe Illustrator 23.0.0, SVG Export Plug-In . SVG Version: 6.00 Build 0)  -->
<svg version="1.1" id="Capa_1" xmlns="http://www.w3.org/2000/svg" xmlns:xlink="http://www.w3.org/1999/xlink" x="0px" y="0px"
	 viewBox="0 0 512 512" style="enable-background:new 0 0 512 512;" xml:space="preserve">
<style type="text/css">
	.st0{fill:#A8771A;}
</style>
<g>
	<g>
		<path class="st0" d="M490.24,113.92c-13.89-24.7-28.96-29.25-59.65-30.98C399.94,80.86,322.85,80,256.06,80
			c-66.91,0-144.03,0.86-174.66,2.91c-30.62,1.76-45.73,6.27-59.74,31.01C7.36,138.59,0,181.09,0,255.9c0,0.06,0,0.1,0,0.1
			c0,0.06,0,0.1,0,0.1v0.06c0,74.5,7.36,117.31,21.66,141.73c14.02,24.7,29.09,29.18,59.71,31.26
			c30.66,1.79,107.78,2.85,174.69,2.85c66.78,0,143.87-1.06,174.56-2.82c30.69-2.08,45.76-6.56,59.65-31.26
			C504.7,373.5,512,330.69,512,256.19c0,0,0-0.1,0-0.16c0,0,0-0.06,0-0.1C512,181.09,504.7,138.59,490.24,113.92z M192,352V160
			l160,96L192,352z"/>
	</g>
</g>
</svg>
