<?xml version="1.0" encoding="utf-8"?>
<!-- Generator: Adobe Illustrator 23.0.0, SVG Export Plug-In . SVG Version: 6.00 Build 0)  -->
<svg version="1.1" id="Capa_1" xmlns="http://www.w3.org/2000/svg" xmlns:xlink="http://www.w3.org/1999/xlink" x="0px" y="0px"
	 viewBox="0 0 512 512" style="enable-background:new 0 0 512 512;" xml:space="preserve">
<style type="text/css">
	.st0{fill:#A8771A;}
</style>
<path class="st0" d="M447-0.5H63c-35.3,0-64,28.7-64,64v384c0,35.3,28.7,64,64,64h192h96h96c35.3,0,64-28.7,64-64v-384
	C511,28.2,482.3-0.5,447-0.5z M128.3,87c20.1,0,36.3,16.3,36.3,36.3c0,20.1-16.3,36.3-36.3,36.3c-20.1,0-36.3-16.3-36.3-36.3
	S108.3,87,128.3,87z M166.2,419H92V190.8h74.2V419z M424,419h-74.2c0,0,0-94,0-145.3c-23.7-57.4-79.8,20.8-79.8,20.8V419h-74.2
	V190.8H270v43.6c9-12.2,36.5-43.6,79.8-43.6c5.1,0,9.4,0.6,13.3,1.3c1,0.2,2,0.4,3,0.6c0.8,0.2,1.6,0.5,2.4,0.7
	c31.9,8.3,55.5,37.1,55.5,71.5L424,419L424,419z"/>
</svg>
